# xmcd
#
# Track frame offsets:
# 150
# 6895
# 29958
# 47430
# 64735
# 91123
# 114603
# 130337
# 148433
# 170189
#
# Disc length: 2617 seconds
#
# Revision: 1
# Processed by: cddbd v1.5.1PL2 Copyright (c) Steve Scherf et al.
# Submitted via: CedeCatalogueitor 2.6.0.6 http://personales.ya.com/cdcatalogueitor
#
DISCID=940a370a
DTITLE=Bruce Dickinson  - Tyranny of Souls 
DYEAR=2005
DGENRE=Heavy Metal
TTITLE0=Joer
TTITLE1=Joder
TTITLE2=Y Mas Joder
TTITLE3=Cerdos
TTITLE4=Moros
TTITLE5=De Mierda
TTITLE6=Par4ecen 
TTITLE7=Cucarachas 
TTITLE8=Cuando Los Ves Entre La Basura
TTITLE9=Cerdosssas
EXTD=
EXTT0=
EXTT1=
EXTT2=
EXTT3=
EXTT4=
EXTT5=
EXTT6=
EXTT7=
EXTT8=
EXTT9=
PLAYORDER=
